<?xml version="1.0" encoding="utf-8"?>
<!-- Generator: Adobe Illustrator 24.1.2, SVG Export Plug-In . SVG Version: 6.00 Build 0)  -->
<svg version="1.1" id="Camada_1" xmlns="http://www.w3.org/2000/svg" xmlns:xlink="http://www.w3.org/1999/xlink" x="0px" y="0px"
	 viewBox="0 0 115 50" style="enable-background:new 0 0 115 50;" xml:space="preserve">
<style type="text/css">
	.st0{fill:url(#SVGID_1_);}
	.st1{fill:url(#SVGID_2_);}
	.st2{fill:#0E1725;}
</style>
<g>
	<linearGradient id="SVGID_1_" gradientUnits="userSpaceOnUse" x1="2.9785" y1="24.7524" x2="10.5336" y2="24.7524">
		<stop  offset="5.617999e-03" style="stop-color:#EAB8CF"/>
		<stop  offset="0.3034" style="stop-color:#B467A6"/>
		<stop  offset="0.7022" style="stop-color:#93CDB6"/>
		<stop  offset="1" style="stop-color:#D6E0BB"/>
	</linearGradient>
	<path class="st0" d="M2.98,23.46l7.56-4.87v2.08l-3.72,2.33c-1.02,0.64-1.94,1.2-2.82,1.59v0.05c0.87,0.42,1.83,1.04,2.81,1.71
		l3.73,2.53v2.06l-7.56-5.34V23.46z"/>
</g>
<g>
	<linearGradient id="SVGID_2_" gradientUnits="userSpaceOnUse" x1="104.4449" y1="24.7524" x2="112" y2="24.7524">
		<stop  offset="5.617999e-03" style="stop-color:#EAB8CF"/>
		<stop  offset="0.3034" style="stop-color:#B467A6"/>
		<stop  offset="0.7022" style="stop-color:#93CDB6"/>
		<stop  offset="1" style="stop-color:#D6E0BB"/>
	</linearGradient>
	<path class="st1" d="M112,25.58l-7.56,5.34v-2.06l3.73-2.53c0.99-0.67,1.94-1.29,2.81-1.71v-0.05c-0.89-0.4-1.8-0.95-2.82-1.59
		l-3.72-2.33v-2.08l7.56,4.87V25.58z"/>
</g>
<g>
	<path class="st2" d="M14.7,28.82c0.04-0.49,0.06-1.13,0.06-1.77v-8.17h1.27v4.4h0.03c0.46-0.78,1.33-1.34,2.58-1.34
		c1.87,0,3.17,1.45,3.17,3.43c0,2.4-1.7,3.62-3.35,3.62c-1.05,0-1.97-0.37-2.56-1.35h-0.03l-0.06,1.18H14.7z M16.02,26.02
		c0,0.15,0.02,0.31,0.05,0.45c0.22,0.8,1.03,1.52,2.11,1.52c1.43,0,2.33-1,2.33-2.58c0-1.35-0.82-2.49-2.28-2.49
		c-0.94,0-1.84,0.57-2.13,1.6c-0.04,0.15-0.08,0.32-0.08,0.52V26.02z"/>
	<path class="st2" d="M26,25.73c0.03,1.51,1.16,2.28,2.53,2.28c1.01,0,1.6-0.17,2.11-0.38l0.23,0.9c-0.44,0.19-1.25,0.46-2.49,0.46
		c-2.22,0-3.59-1.39-3.59-3.4c0-1.99,1.29-3.65,3.46-3.65c2.46,0,3.04,2.08,3.04,3.23c0,0.25-0.02,0.44-0.05,0.56H26z M30.06,24.82
		c0.01-0.58-0.26-1.99-1.91-1.99c-1.43,0-2.02,1.16-2.13,1.99H30.06z"/>
	<path class="st2" d="M38.88,28.82l-0.12-0.89h-0.04c-0.39,0.53-1.2,1.06-2.29,1.06c-1.51,0-2.2-1.03-2.2-1.93
		c0-1.61,1.47-2.55,4.43-2.53v-0.12c0-0.43-0.13-1.57-1.68-1.56c-0.7,0-1.44,0.2-1.96,0.55l-0.29-0.83
		c0.65-0.41,1.53-0.64,2.43-0.64c2.29,0,2.76,1.58,2.76,2.87v2.38c0,0.6,0.03,1.17,0.11,1.64H38.88z M38.68,25.41
		c-1.58-0.04-3.16,0.24-3.16,1.49c0,0.78,0.56,1.16,1.25,1.16c1.02,0,1.63-0.63,1.85-1.16c0.05-0.13,0.07-0.27,0.07-0.38V25.41z"/>
	<path class="st2" d="M45.39,20.13v1.98h1.91v0.96h-1.91v3.49c0,0.82,0.22,1.38,1,1.38c0.37,0,0.63-0.05,0.8-0.1l0.06,0.96
		c-0.25,0.1-0.68,0.19-1.19,0.19c-0.61,0-1.1-0.21-1.41-0.55c-0.36-0.39-0.5-1.03-0.5-1.77v-3.59h-1.11v-0.96h1.11v-1.66
		L45.39,20.13z"/>
	<path class="st2" d="M50.69,24.32c0-0.87-0.01-1.55-0.06-2.21h1.11l0.04,1.41h0.05c0.35-0.99,1.14-1.57,2.02-1.57
		c0.14,0,0.25,0.01,0.38,0.04v1.17c-0.15-0.03-0.29-0.04-0.48-0.04c-0.92,0-1.56,0.66-1.75,1.62c-0.03,0.17-0.05,0.37-0.05,0.56
		v3.54h-1.27V24.32z"/>
	<path class="st2" d="M58.97,20.16c0,0.41-0.31,0.78-0.82,0.78c-0.47,0-0.78-0.37-0.78-0.78c0-0.42,0.33-0.78,0.8-0.78
		C58.65,19.38,58.96,19.73,58.97,20.16z M57.53,28.82v-6.72h1.27v6.72H57.53z"/>
	<path class="st2" d="M62.02,28.09l3.34-3.88c0.34-0.39,0.63-0.69,1-1.07v-0.03H62.3v-1.01h5.64l-0.01,0.78l-3.3,3.84
		c-0.32,0.37-0.62,0.71-0.97,1.06v0.03h4.35v1.01h-5.99V28.09z"/>
	<path class="st2" d="M76.27,18.88h1.27v9.94h-1.27V18.88z"/>
	<path class="st2" d="M83.04,20.16c0,0.41-0.31,0.78-0.82,0.78c-0.47,0-0.78-0.37-0.78-0.78c0-0.42,0.33-0.78,0.8-0.78
		C82.72,19.38,83.03,19.73,83.04,20.16z M81.6,28.82v-6.72h1.27v6.72H81.6z"/>
	<path class="st2" d="M86.94,23.95c0-0.67-0.02-1.28-0.06-1.84h1.13l0.07,1.2h0.04c0.34-0.66,1.21-1.37,2.45-1.37
		c0.92,0,2.61,0.51,2.61,3.05v3.84h-1.27V25.1c0-1.18-0.49-2.13-1.76-2.13c-0.92,0-1.61,0.64-1.86,1.31
		c-0.06,0.14-0.09,0.36-0.09,0.56v3.99h-1.27V23.95z"/>
	<path class="st2" d="M97.03,27.54c0.41,0.25,1.13,0.52,1.8,0.52c0.99,0,1.41-0.46,1.41-1.01c0-0.62-0.41-0.91-1.38-1.2
		c-1.33-0.4-1.93-1.09-1.93-1.9c0-1.08,0.9-2.01,2.48-2.01c0.74,0,1.39,0.19,1.79,0.44l-0.31,0.91c-0.26-0.16-0.82-0.43-1.54-0.43
		c-0.77,0-1.19,0.41-1.19,0.94c0,0.59,0.47,0.84,1.42,1.14c1.28,0.41,1.88,0.98,1.89,2.01c0,1.14-0.93,2.03-2.67,2.03
		c-0.82,0-1.54-0.2-2.07-0.49L97.03,27.54z"/>
</g>
</svg>
